<svg xmlns="http://www.w3.org/2000/svg" width="64.965" height="63.719" viewBox="0 0 64.965 63.719">
  <path id="Vector" d="M50.486-18.3a2.407,2.407,0,0,1-1.943,1.638L33.975-14.542l-6.515,13.2A2.407,2.407,0,0,1,25.3,0a2.407,2.407,0,0,1-2.159-1.342l-6.515-13.2L2.061-16.659A2.407,2.407,0,0,1,.118-18.3a2.407,2.407,0,0,1,.609-2.468L11.268-31.04,8.78-45.548A2.407,2.407,0,0,1,9.737-47.9a2.407,2.407,0,0,1,2.535-.183L25.3-41.236l13.029-6.85a2.408,2.408,0,0,1,2.535.183,2.407,2.407,0,0,1,.958,2.354L39.336-31.04,49.877-20.765a2.408,2.408,0,0,1,.609,2.468Z" transform="translate(17.995 63.719) rotate(-21.844)" fill="#fcb901"/>
</svg>
