<svg xmlns="http://www.w3.org/2000/svg" xmlns:xlink="http://www.w3.org/1999/xlink" width="6.375" height="10.517" viewBox="0 0 6.375 10.517">
  <defs>
    <linearGradient id="linear-gradient" x2="1" y2="1" gradientUnits="objectBoundingBox">
      <stop offset="0" stop-color="#ae68fa"/>
      <stop offset="1" stop-color="#f1966e"/>
    </linearGradient>
  </defs>
  <path id="Union" d="M7,.72a.693.693,0,1,0-1.386,0V8.058L4.3,6.694a.675.675,0,0,0-.98,0,.741.741,0,0,0,0,1.019l2.495,2.593a.688.688,0,0,0,.252.167.671.671,0,0,0,.54-.028.685.685,0,0,0,.121-.078A.707.707,0,0,0,6.8,10.3L9.291,7.713a.741.741,0,0,0,0-1.019.675.675,0,0,0-.98,0L7,8.057Z" transform="matrix(1, 0, 0, 1, -3.118, 0)" fill="url(#linear-gradient)"/>
</svg>
