<svg xmlns="http://www.w3.org/2000/svg" xmlns:xlink="http://www.w3.org/1999/xlink" width="39.2" height="40.185" viewBox="0 0 39.2 40.185">
  <defs>
    <linearGradient id="linear-gradient" x1="0.5" y1="0.103" x2="0.5" y2="1" gradientUnits="objectBoundingBox">
      <stop offset="0" stop-color="#feea70"/>
      <stop offset="1" stop-color="#f69b30"/>
    </linearGradient>
    <linearGradient id="linear-gradient-2" x1="0.5" x2="0.5" y2="1" gradientUnits="objectBoundingBox">
      <stop offset="0" stop-color="#472315"/>
      <stop offset="1" stop-color="#8b3a0e"/>
    </linearGradient>
    <linearGradient id="linear-gradient-3" x1="0.5" x2="0.5" y2="1" gradientUnits="objectBoundingBox">
      <stop offset="0" stop-color="#191a33"/>
      <stop offset="0.872" stop-color="#3b426a"/>
    </linearGradient>
    <filter id="Vector" x="0" y="0" width="39.2" height="20.697" filterUnits="userSpaceOnUse">
      <feOffset dy="1" input="SourceAlpha"/>
      <feGaussianBlur stdDeviation="3" result="blur"/>
      <feFlood flood-color="#cd6301" flood-opacity="0.145"/>
      <feComposite operator="in" in2="blur"/>
      <feComposite in="SourceGraphic"/>
    </filter>
    <linearGradient id="linear-gradient-4" x1="0.5" x2="0.5" y2="1" gradientUnits="objectBoundingBox">
      <stop offset="0" stop-color="#e78e0d"/>
      <stop offset="1" stop-color="#cb6000"/>
    </linearGradient>
  </defs>
  <g id="Group" transform="translate(-1107.398 -677.53)">
    <path id="Vector-2" data-name="Vector" d="M36,17.991A18,18,0,1,1,30.728,5.269,17.987,17.987,0,0,1,36,17.991Z" transform="translate(1109 681.733)" fill="url(#linear-gradient)"/>
    <path id="Vector-3" data-name="Vector" d="M.041,6.495c-.356,4.149,1.634,7,5.3,7s5.659-2.849,5.3-7S8.138,0,5.344,0,.394,2.343.041,6.495Z" transform="translate(1121.656 699.724)" fill="url(#linear-gradient-2)"/>
    <path id="Vector-4" data-name="Vector" d="M0,3.373A3.131,3.131,0,0,1,2.813,0,3.131,3.131,0,0,1,5.625,3.373,3.13,3.13,0,0,1,2.813,6.747,3.13,3.13,0,0,1,0,3.373Zm14.625,0A3.133,3.133,0,0,1,17.438,0,3.131,3.131,0,0,1,20.25,3.373a3.13,3.13,0,0,1-2.812,3.373A3.131,3.131,0,0,1,14.625,3.373Z" transform="translate(1116.875 690.728)" fill="url(#linear-gradient-3)"/>
    <path id="Vector-5" data-name="Vector" d="M0,3.373A3.131,3.131,0,0,1,2.813,0,3.131,3.131,0,0,1,5.625,3.373,3.13,3.13,0,0,1,2.813,6.747,3.13,3.13,0,0,1,0,3.373Zm14.625,0A3.133,3.133,0,0,1,17.438,0,3.131,3.131,0,0,1,20.25,3.373a3.13,3.13,0,0,1-2.812,3.373A3.131,3.131,0,0,1,14.625,3.373Z" transform="translate(1116.875 690.728)" fill="#222"/>
    <path id="Vector-6" data-name="Vector" d="M1.026.017a.815.815,0,0,1,.522,1.055.89.89,0,0,1-.99.715A.817.817,0,0,1,.036.73.891.891,0,0,1,1.026.017ZM16.007.159a.906.906,0,0,1,.58,1.169.991.991,0,0,1-1.1.8.907.907,0,0,1-.58-1.172.989.989,0,0,1,1.1-.794Z" transform="translate(1118.059 691.987)" fill="#4e506a"/>
    <g transform="matrix(1, 0, 0, 1, 1107.4, 677.53)" filter="url(#Vector)">
      <path id="Vector-7" data-name="Vector" d="M17.5.017C17.62.005,17.737,0,17.856,0a4.6,4.6,0,0,1,3.087,1.264.827.827,0,0,1,.049,1.147.774.774,0,0,1-1.116.054,2.989,2.989,0,0,0-2.232-.83,1.8,1.8,0,0,0-1.328.744.779.779,0,0,1-1.1.153.827.827,0,0,1-.151-1.14A3.353,3.353,0,0,1,17.5.017ZM.257,1.265A4.6,4.6,0,0,1,3.344,0,3.355,3.355,0,0,1,6.138,1.393a.83.83,0,0,1-.148,1.14A.781.781,0,0,1,4.883,2.38a1.8,1.8,0,0,0-1.328-.744,2.992,2.992,0,0,0-2.232.83A.774.774,0,0,1,.207,2.412.827.827,0,0,1,.257,1.265Z" transform="translate(9 8)" fill="#222"/>
    </g>
    <path id="Vector-8" data-name="Vector" d="M17.5.017C17.62.005,17.737,0,17.856,0a4.6,4.6,0,0,1,3.087,1.264.827.827,0,0,1,.049,1.147.774.774,0,0,1-1.116.054,2.989,2.989,0,0,0-2.232-.83,1.8,1.8,0,0,0-1.328.744.779.779,0,0,1-1.1.153.827.827,0,0,1-.151-1.14A3.353,3.353,0,0,1,17.5.017ZM.257,1.265A4.6,4.6,0,0,1,3.344,0,3.355,3.355,0,0,1,6.138,1.393a.83.83,0,0,1-.148,1.14A.781.781,0,0,1,4.883,2.38a1.8,1.8,0,0,0-1.328-.744,2.992,2.992,0,0,0-2.232.83A.774.774,0,0,1,.207,2.412.827.827,0,0,1,.257,1.265Z" transform="translate(1116.398 685.53)" fill="url(#linear-gradient-4)"/>
  </g>
</svg>
